<?xml version="1.0" standalone="no"?><!DOCTYPE svg PUBLIC "-//W3C//DTD SVG 1.1//EN" "http://www.w3.org/Graphics/SVG/1.1/DTD/svg11.dtd"><svg class="icon" width="200px" height="200.00px" viewBox="0 0 1024 1024" version="1.1" xmlns="http://www.w3.org/2000/svg"><path d="M512.268258 599.397827c19.307406 0 36.787176-7.825556 49.440351-20.477706l342.486569-342.48657c-1.752892-0.917401-3.6051-1.654599-5.50236-2.290431-0.837538-0.268258-1.655623-0.576447-2.519781-0.782248-0.739245-0.186347-1.501016-0.309213-2.258691-0.447438-1.906474-0.3215-3.834451-0.58771-5.833075-0.58771H136.455245c-1.9976 0-3.9266 0.26621-5.833075 0.58771-0.757675 0.137201-1.52047 0.260067-2.258691 0.447438-0.864159 0.205801-1.682244 0.512967-2.518758 0.782248-1.89726 0.635833-3.750492 1.37303-5.502359 2.290431l342.486569 342.48657c12.652151 12.652151 30.131921 20.477706 49.439327 20.477706zM101.520278 267.051818c-0.001024 0.079863-0.023549 0.153583-0.02355 0.233446v489.429472c0 0.466892 0.118771 0.901019 0.137201 1.362791l245.456029-245.456029-245.56968-245.56968z m484.907994 336.587966c-18.978738 18.979762-45.198394 30.717584-74.160014 30.717584s-55.180252-11.738845-74.160014-30.717584l-66.298623-66.298622-250.662485 250.663509a36.81994 36.81994 0 0 0 6.973682 2.559714c0.156654 0.038908 0.301022 0.10546 0.458701 0.14232 2.525925 0.617403 5.154239 0.968596 7.87675 0.968595h751.623978c2.722511 0 5.350825-0.351193 7.87675-0.968595 0.157678-0.03686 0.302046-0.103412 0.4587-0.14232a36.784104 36.784104 0 0 0 6.97266-2.559714L652.725871 537.341162l-66.297599 66.298622z m336.587966-336.587966L677.446558 512.621498l245.456029 245.456029c0.01843-0.461772 0.137201-0.8959 0.137201-1.362791V267.285264c0-0.079863-0.022525-0.153583-0.02355-0.233446z" fill="#FFFFFF" /><path d="M311.251924 337.203321h139.837138v-17.47977H311.251924v17.47977z m0-52.438287v17.479771h192.275425v-17.479771h-192.275425z" fill="#EE6A56" /><path d="M888.080247 197.366183H136.455245c-38.614811 0-69.918057 31.30427-69.918057 69.919081v489.429472c0 38.614811 31.30427 69.919081 69.918057 69.919081H888.080247c38.614811 0 69.918057-31.30427 69.918057-69.919081V267.285264c0.001024-38.614811-31.303246-69.919081-69.918057-69.919081z m-751.625002 34.959541H888.080247c5.858672 0 11.375366 1.447774 16.225511 3.9952L561.707585 578.920121c-12.653175 12.653175-30.132945 20.477706-49.440351 20.477706s-36.787176-7.825556-49.440351-20.477706L120.229734 236.320924a34.801862 34.801862 0 0 1 16.225511-3.9952z m-34.958517 34.95954c0-0.083959 0.006143-0.166893 0.006144-0.250852L347.089958 512.621498 101.533588 758.177868c-0.020478-0.485322-0.03686-0.972691-0.03686-1.463132V267.285264zM888.080247 791.674276H136.455245a34.810053 34.810053 0 0 1-15.404355-3.574383l250.758731-250.758731 66.298623 66.298622c18.978738 18.979762 45.198394 30.717584 74.160014 30.717584s55.180252-11.738845 74.160014-30.717584l66.298623-66.298622 250.758731 250.758731a34.80391 34.80391 0 0 1-15.405379 3.574383z m34.959541-34.95954c0 0.490441-0.017406 0.976787-0.03686 1.463132L677.446558 512.621498l245.587086-245.587086c0.001024 0.083959 0.006143 0.166893 0.006144 0.250852v489.429472z"  /></svg>