<?xml version="1.0" standalone="no"?><!DOCTYPE svg PUBLIC "-//W3C//DTD SVG 1.1//EN" "http://www.w3.org/Graphics/SVG/1.1/DTD/svg11.dtd"><svg class="icon" width="200px" height="200.00px" viewBox="0 0 1024 1024" version="1.1" xmlns="http://www.w3.org/2000/svg"><path fill="#333333" d="M933.799652 195.213054c0-58.295708-47.258327-105.554034-105.554034-105.554034l-633.119545 0c-58.295708 0-105.554034 47.258327-105.554034 105.554034l0 633.119545c0 58.295708 47.258327 105.554034 105.554034 105.554034l633.119545 0c58.295708 0 105.554034-47.258327 105.554034-105.554034L933.799652 195.213054zM776.210497 300.460096l-106.423845 0 0 105.400538 106.423845 0 0 105.400538-106.423845 0 0 317.224922-105.400538 0 0-317.224922-105.400538 0 0-105.400538 105.400538 0L564.386114 320.676533l0-52.777017c0-35.433 39.028898-72.839959 78.785368-72.839959l52.777017 0 80.261998 0L776.210497 300.460096z" /></svg>