<?xml version="1.0" standalone="no"?><!DOCTYPE svg PUBLIC "-//W3C//DTD SVG 1.1//EN" "http://www.w3.org/Graphics/SVG/1.1/DTD/svg11.dtd"><svg class="icon" width="200px" height="200.00px" viewBox="0 0 1024 1024" version="1.1" xmlns="http://www.w3.org/2000/svg"><path fill="#333333" d="M779.995195 65.288982 243.983315 65.288982c-98.713232 0-178.692798 80.088036-178.692798 178.715311l0 536.012903c0 98.713232 79.979566 178.692798 178.692798 178.692798l536.012903 0c98.713232 0 178.713264-79.979566 178.713264-178.692798L958.709483 244.004293C958.70846 145.377018 878.708428 65.288982 779.995195 65.288982zM869.286848 735.349881c0 74.001411-59.957557 133.958968-133.958968 133.958968L288.629141 869.308849c-73.979922 0-133.937478-59.957557-133.937478-133.958968L154.691663 288.650119c0-74.001411 59.957557-133.937478 133.937478-133.937478l446.698738 0c74.001411 0 133.958968 59.935044 133.958968 133.937478L869.286848 735.349881zM467.343429 489.719554c0 61.636802-50.056046 111.583354-111.691825 111.583354-61.721737 0-111.668289-49.946552-111.668289-111.583354 0-61.721737 49.946552-111.668289 111.668289-111.668289C417.287383 378.051265 467.343429 427.997817 467.343429 489.719554zM779.995195 489.719554c0 61.636802-49.946552 111.583354-111.691825 111.583354-61.61429 0-111.668289-49.946552-111.668289-111.583354 0-61.721737 50.053999-111.668289 111.668289-111.668289C730.049666 378.051265 779.995195 427.997817 779.995195 489.719554z" /></svg>