<?xml version="1.0" standalone="no"?><!DOCTYPE svg PUBLIC "-//W3C//DTD SVG 1.1//EN" "http://www.w3.org/Graphics/SVG/1.1/DTD/svg11.dtd"><svg class="icon" width="200px" height="199.42px" viewBox="0 0 1027 1024" version="1.1" xmlns="http://www.w3.org/2000/svg"><path fill="#333333" d="M261.44 508.8l404.928 0c-4.48 101.888-37.632 184.384-99.328 247.68-61.696 63.104-139.904 94.72-234.56 94.72-49.088 0-94.4-9.472-135.872-28.224-41.536-18.88-78.72-46.72-111.68-83.84-27.904-30.784-49.024-65.792-63.36-105.152C7.168 594.816 0 552.768 0 507.968c0-45.632 8.704-88.96 26.112-129.92C43.456 337.088 68.928 300.16 102.464 267.328c31.744-31.68 67.264-55.36 106.624-70.976C248.192 180.672 291.776 172.8 339.776 172.8c66.112 0 124.16 15.424 174.08 46.4 49.856 30.912 87.488 74.944 113.088 131.968L510.4 351.168c-21.568-27.84-47.36-48.704-77.312-62.72C403.008 274.368 369.472 267.328 332.608 267.328c-30.912 0-60.288 5.76-88.192 17.408-27.904 11.712-52.672 28.608-74.24 50.688C147.648 358.464 130.048 385.152 117.504 415.68 104.832 446.144 98.624 477.184 98.624 508.8c0 34.048 5.632 66.304 17.088 96.64 11.392 30.336 27.776 56.512 48.96 78.656 22.464 23.296 48.512 41.344 77.888 54.208 29.376 12.864 59.328 19.264 89.92 19.264 49.792 0 93.696-13.184 131.84-39.616 38.016-26.368 69.376-65.472 94.016-117.12L261.44 600.832 261.44 508.8zM859.008 654.528 859.008 536.256 741.632 536.256 741.632 486.784 859.008 486.784 859.008 369.408 909.056 369.408 909.056 486.784 1026.496 486.784 1026.496 536.256 909.056 536.256 909.056 654.528Z" /></svg>