<?xml version="1.0" standalone="no"?><!DOCTYPE svg PUBLIC "-//W3C//DTD SVG 1.1//EN" "http://www.w3.org/Graphics/SVG/1.1/DTD/svg11.dtd"><svg class="icon" width="200px" height="200.00px" viewBox="0 0 1024 1024" version="1.1" xmlns="http://www.w3.org/2000/svg"><path fill="#333333" d="M658.272 512q0-60.576-42.848-103.424t-103.424-42.848-103.424 42.848-42.848 103.424 42.848 103.424 103.424 42.848 103.424-42.848 42.848-103.424zM737.12 512q0 93.728-65.728 159.424t-159.424 65.728-159.424-65.728-65.728-159.424 65.728-159.424 159.424-65.728 159.424 65.728 65.728 159.424zM798.848 277.728q0 21.728-15.424 37.152t-37.152 15.424-37.152-15.424-15.424-37.152 15.424-37.152 37.152-15.424 37.152 15.424 15.424 37.152zM511.968 152q-4 0-43.712-0.288t-60.288 0-55.136 1.728-58.848 5.728-40.864 10.56q-28.576 11.424-50.272 33.152t-33.152 50.272q-6.272 16.576-10.56 40.864t-5.728 58.848-1.728 55.136 0 60.288 0.288 43.712-0.288 43.712 0 60.288 1.728 55.136 5.728 58.848 10.56 40.864q11.424 28.576 33.152 50.272t50.272 33.152q16.576 6.272 40.864 10.56t58.848 5.728 55.136 1.728 60.288 0 43.712-0.288 43.712 0.288 60.288 0 55.136-1.728 58.848-5.728 40.864-10.56q28.576-11.424 50.272-33.152t33.152-50.272q6.272-16.576 10.56-40.864t5.728-58.848 1.728-55.136 0-60.288-0.288-43.712 0.288-43.712 0-60.288-1.728-55.136-5.728-58.848-10.56-40.864q-11.424-28.576-33.152-50.272t-50.272-33.152q-16.576-6.272-40.864-10.56t-58.848-5.728-55.136-1.728-60.288 0-43.712 0.288zM950.848 512q0 130.848-2.848 181.152-5.728 118.848-70.848 184t-184 70.848q-50.272 2.848-181.152 2.848t-181.152-2.848q-118.848-5.728-184-70.848t-70.848-184q-2.848-50.272-2.848-181.152t2.848-181.152q5.728-118.848 70.848-184t184-70.848q50.272-2.848 181.152-2.848t181.152 2.848q118.848 5.728 184 70.848t70.848 184q2.848 50.272 2.848 181.152z" /></svg>