<?xml version="1.0" standalone="no"?><!DOCTYPE svg PUBLIC "-//W3C//DTD SVG 1.1//EN" "http://www.w3.org/Graphics/SVG/1.1/DTD/svg11.dtd"><svg class="icon" width="200px" height="200.00px" viewBox="0 0 1024 1024" version="1.1" xmlns="http://www.w3.org/2000/svg"><path d="M418.646 203.615c-138.453 0-251.867 94.439-251.867 214.385 0 67.523 33.98 123.27 94.164 166.91l-7.473 21.381-7.213 20.641c-8.476 12.277-4.762 28.693 8.299 36.664s30.52 4.475 38.996-7.803l42.803-34.773c28.812 5.832 52.85 11.449 82.291 11.449 7.901 0 15.74-0.396 23.517-1.002-4.92-16.846-7.776-34.498-7.776-52.826 0-110.131 94.498-199.5 214.139-199.5 8.166 0 16.241 0.592 24.254 1.51-21.795-101.598-130.289-177.036-254.134-177.036z" fill="#D1D9E0" /><path d="M269.877 679.871c-7.646 0-15.105-2.086-21.572-6.032-9.274-5.66-15.59-14.465-17.784-24.794-2.021-9.51-0.282-19.191 4.893-27.458l11.296-32.324c-28.394-21.79-50.512-46.271-65.818-72.866-17.327-30.106-26.112-63.212-26.112-98.396 0-61.369 27.796-118.666 78.267-161.336 49.615-41.947 115.53-65.049 185.601-65.049 62.349 0 123.502 18.67 172.192 52.57 49.23 34.275 82.497 81.846 93.674 133.948a11.998 11.998 0 0 1-2.846 10.579 11.986 11.986 0 0 1-10.254 3.859c-8.409-0.963-15.896-1.432-22.888-1.432-54.648 0-105.694 19.608-143.734 55.212-37.663 35.25-58.404 82.231-58.404 132.288 0 16.246 2.454 32.888 7.295 49.462a12 12 0 0 1-10.587 15.329c-8.972 0.698-16.969 1.038-24.448 1.038-27.653 0-50.065-4.598-76.017-9.92l-3.111-0.639-37.191 30.215c-7.561 9.895-19.552 15.746-32.452 15.746z m148.769-464.256c-64.405 0-124.816 21.087-170.106 59.377-44.985 38.033-69.761 88.821-69.761 143.008 0 61.384 30.014 114.272 89.208 157.195a11.998 11.998 0 0 1 4.284 13.674l-14.686 42.021a11.97 11.97 0 0 1-1.453 2.858c-2.133 3.09-2.892 6.751-2.136 10.309 0.81 3.808 3.228 7.108 6.811 9.295 2.7 1.647 5.837 2.519 9.07 2.519 5.659 0 10.818-2.578 13.8-6.896a11.998 11.998 0 0 1 2.309-2.495l42.803-34.773a12.003 12.003 0 0 1 9.947-2.448c2.951 0.598 5.854 1.193 8.717 1.78 24.67 5.061 45.976 9.431 71.193 9.431 2.678 0 5.438-0.048 8.305-0.146-3.032-13.961-4.564-27.928-4.564-41.683 0-56.77 23.44-109.973 66.004-149.811 42.504-39.781 99.374-61.689 160.135-61.689 2.705 0 5.464 0.061 8.297 0.184-12.759-39.935-40.59-76.216-79.696-103.442-44.707-31.126-100.989-48.268-158.481-48.268z" fill="#020202" /><path d="M285.115 339.678a33.313 33 0 1 0 66.626 0 33.313 33 0 1 0-66.626 0Z" fill="#F7F8F9" /><path d="M318.429 384.678c-24.986 0-45.313-20.187-45.313-45s20.327-45 45.313-45c24.985 0 45.312 20.187 45.312 45s-20.327 45-45.312 45z m0-66c-11.752 0-21.313 9.421-21.313 21s9.562 21 21.313 21 21.312-9.421 21.312-21-9.56-21-21.312-21z" fill="#020202" /><path d="M473.89 339.678a33.313 33 0 1 0 66.626 0 33.313 33 0 1 0-66.626 0Z" fill="#F7F8F9" /><path d="M507.202 384.678c-24.985 0-45.312-20.187-45.312-45s20.327-45 45.312-45c24.986 0 45.313 20.187 45.313 45s-20.327 45-45.313 45z m0-66c-11.752 0-21.312 9.421-21.312 21s9.561 21 21.312 21 21.313-9.421 21.313-21-9.561-21-21.313-21z" fill="#020202" /><path d="M785.063 700.979c45.029-37.365 77.262-84.908 77.262-138.02 0-102.777-102.605-186.529-217.855-186.529-122.03 0-218.145 83.752-218.145 186.529 0 102.904 96.114 186.486 218.145 186.486 17.744 0 35.598-3.115 53.446-7.174a10.91 10.91 0 0 0 1.452 3.02l44.644 36.312c8.632 12.518 26.41 16.08 39.711 7.955 13.299-8.127 17.081-24.861 8.45-37.381" fill="#FFFFFF" /><path d="M768.229 805.859c-12.66 0.001-25.121-5.607-32.997-15.929l-42.176-34.306c-14.108 2.979-31.206 5.82-48.587 5.82-61.703 0-119.469-20.439-162.655-57.553-43.521-37.401-67.489-87.453-67.489-140.934 0-53.435 23.967-103.475 67.486-140.904 43.206-37.16 100.973-57.625 162.658-57.625 58.244 0 116.519 20.977 159.883 57.55 45.123 38.058 69.973 88.124 69.973 140.979 0 52.038-28.217 102.958-81.599 147.254-5.101 4.235-12.666 3.529-16.897-1.571-4.232-5.101-3.528-12.666 1.571-16.897 60.273-50.015 72.925-97.64 72.925-128.785 0-45.662-21.822-89.214-61.445-122.633-39.104-32.981-91.739-51.896-144.41-51.896-55.945 0-108.154 18.403-147.009 51.821-38.134 32.798-59.136 76.376-59.136 122.708 0 46.375 21 89.961 59.132 122.731 38.836 33.375 91.046 51.755 147.013 51.755 18.215 0 36.709-3.674 50.785-6.875a12 12 0 0 1 13.736 7.079l42.593 34.645c0.884 0.719 1.66 1.56 2.307 2.497 4.978 7.22 15.775 9.293 23.576 4.527 3.7-2.262 6.2-5.68 7.038-9.624 0.785-3.695 0-7.497-2.212-10.706-3.762-5.456-2.388-12.929 3.069-16.69 5.456-3.762 12.93-2.388 16.69 3.069 5.992 8.692 8.098 19.104 5.929 29.315-2.223 10.46-8.615 19.38-18.001 25.115-6.715 4.104-14.268 6.063-21.751 6.063z"  /><path d="M528.016 522.678a32.187 32 0 1 0 64.374 0 32.187 32 0 1 0-64.374 0Z" fill="#FCFFB6" /><path d="M560.202 564.678c-23.262 0-42.187-18.841-42.187-42s18.925-42 42.187-42c23.263 0 42.188 18.841 42.188 42s-18.925 42-42.188 42z m0-64c-12.233 0-22.187 9.869-22.187 22s9.953 22 22.187 22c12.234 0 22.188-9.869 22.188-22s-9.953-22-22.188-22z"  /><path d="M693.241 522.678a32.187 32 0 1 0 64.374 0 32.187 32 0 1 0-64.374 0Z" fill="#FCFFB6" /><path d="M725.429 564.678c-23.263 0-42.188-18.841-42.188-42s18.925-42 42.188-42c23.262 0 42.187 18.841 42.187 42s-18.926 42-42.187 42z m0-64c-12.234 0-22.188 9.869-22.188 22s9.953 22 22.188 22c12.233 0 22.187-9.869 22.187-22s-9.954-22-22.187-22z"  /><path d="M636.815 232.678s57 32 81 112" fill="#FFFFFF" /><path d="M717.811 356.681c-5.162 0-9.93-3.356-11.489-8.555-22.349-74.495-74.853-104.688-75.38-104.984-5.779-3.244-7.834-10.56-4.59-16.338 3.245-5.778 10.562-7.834 16.338-4.59 2.5 1.403 61.516 35.335 86.62 119.016 1.904 6.348-1.698 13.038-8.046 14.942-1.15 0.345-2.312 0.509-3.453 0.509z"  /><path d="M403.815 675.678s29 77 117 97" fill="#FFFFFF" /><path d="M520.826 784.681c-0.881 0-1.774-0.098-2.67-0.302-38.558-8.763-72.457-29.506-98.033-59.988-19.344-23.053-27.212-43.619-27.537-44.483-2.336-6.202 0.798-13.124 7-15.459 6.192-2.334 13.104 0.789 15.449 6.974 0.115 0.299 7.141 18.298 24.059 38.236 22.418 26.422 50.809 43.688 84.381 51.318 6.463 1.469 10.511 7.898 9.042 14.36-1.265 5.567-6.213 9.344-11.691 9.344z"  /></svg>