<?xml version="1.0" standalone="no"?><!DOCTYPE svg PUBLIC "-//W3C//DTD SVG 1.1//EN" "http://www.w3.org/Graphics/SVG/1.1/DTD/svg11.dtd"><svg class="icon" width="200px" height="200.00px" viewBox="0 0 1024 1024" version="1.1" xmlns="http://www.w3.org/2000/svg"><path d="M778.894 442.129c-32.323-6.232-16.633-23.535-16.633-23.535s31.632-51.912-6.253-89.633c-46.928-46.715-160.986 5.961-160.986 5.961-43.546 13.467-32.026-6.158-25.864-39.506 0-39.301-13.51-105.822-129.551-66.521C323.664 268.4 224.156 406.777 224.156 406.777c-69.221 91.979-60.08 163.047-60.08 163.047 17.302 156.918 184.761 200.01 315.004 210.215 137.05 10.682 321.963-47.041 378.069-165.641 56.06-118.804-45.826-165.822-78.255-172.269z" fill="#D1D9E0" /><path d="M512.138 826.294h-0.022c-12.409-0.001-24.701-0.469-36.533-1.391-87.601-6.864-160.697-25.406-217.276-55.112-37.989-19.944-68.848-45.162-91.72-74.951-26.296-34.248-42.181-74.569-47.213-119.845-1.367-11.57-7.733-93.344 68.565-194.928 7.71-10.632 111.27-150.874 237.155-193.768 28.638-9.699 53.455-14.401 75.948-14.401 41.949 0 75.675 17.531 94.963 49.365 9.844 16.245 15.722 35.874 17.542 58.512 23.342-7.52 54.603-15.137 85.46-15.137 37.272 0 67.133 10.911 88.749 32.431 26.044 25.93 36.653 61.015 29.88 98.795a137.7 137.7 0 0 1-2.357 10.664c30.079 12.233 67.458 36.612 88.31 77.987 27.578 54.721 12.1 111.277-5.742 149.086-28.71 60.689-85.681 111.29-164.773 146.371-67.346 29.871-145.811 46.322-220.936 46.322z m-11.097-564.396c-8.485 0-23.527 1.669-47 9.618-40.817 13.908-87.095 46.037-133.753 92.889-36.405 36.555-59.37 68.328-59.598 68.645-0.19 0.265-0.383 0.526-0.579 0.787-55.706 74.02-51.471 129.718-51.403 130.247 0.035 0.269 0.067 0.539 0.097 0.809 6.084 55.182 35.961 96.14 91.338 125.214 45.716 24.002 107.102 39.166 182.452 45.07 9.499 0.74 19.439 1.116 29.525 1.117h0.018c61.924 0 129.147-14.065 184.444-38.592 74.66-33.115 106.405-74.044 119.89-102.547 13.499-28.608 15.775-52.219 6.746-70.135-11.786-23.386-41.257-36.364-53.006-38.737-35.521-6.899-48.96-26.271-53.978-41.318-6.578-19.726-0.724-38.244 8.128-50.873 1.546-3.165 4.051-9.286 4.943-15.726 1.403-10.128-1.869-14.353-5.048-17.517-3.964-3.945-13.168-6.211-25.251-6.211-31.897 0-72.313 15.283-85.194 21.172a43.653 43.653 0 0 1-5.495 2.103c-14.085 4.355-24.726 6.299-34.501 6.299-24.256 0.001-37.921-12.523-43.908-19.989-17.204-21.454-11.655-46.378-7.604-64.576a515.6 515.6 0 0 0 1.788-8.245c-0.467-13.845-3.307-20.606-5.06-23.499-1.181-1.949-3.638-6.005-17.991-6.005z" fill="#FFFFFF" /><path d="M511.875 793.283c-11.455 0-22.722-0.423-33.729-1.28-199.024-15.595-311.745-91.932-325.99-220.781-0.566-4.654-8.103-77.902 62.336-171.562 1.867-2.586 26.533-36.443 65.406-75.478 53.561-53.781 105.991-89.663 155.836-106.646 50.646-17.154 88.997-16.751 114.012 1.186 20.842 14.946 31.409 40.75 31.409 76.694 0 0.731-0.066 1.461-0.2 2.181-0.963 5.214-2.054 10.112-3.016 14.435-1.102 4.951-2.516 11.301-2.858 15.145 2.57-0.183 7.323-0.953 15.68-3.499 4.967-2.232 32.103-14.051 64.652-20.989 49.846-10.628 86.538-4.649 109.059 17.769 18.405 18.325 25.556 42.387 20.679 69.584-3.527 19.677-12.273 34.189-12.645 34.798-0.464 0.762-0.683 1.123-1.275 1.733-0.099 0.128-0.2 0.277-0.298 0.433 1.323 0.818 4.259 2.19 10.23 3.342 22.403 4.454 70.561 24.592 92.953 69.021 17.333 34.393 15.274 74.817-6.117 120.152-17.831 37.694-48.304 70.979-90.577 98.942-5.525 3.654-12.973 2.14-16.629-3.389-3.656-5.527-2.139-12.973 3.389-16.629 38.564-25.509 66.192-55.513 82.117-89.177 18.072-38.299 20.222-71.644 6.385-99.099-18.9-37.502-61.364-53.335-76.132-56.271-15.972-3.079-25.757-9.602-29.015-19.373-2.944-8.828 0.609-17.564 4.881-22.878 3.358-5.941 23.952-45.477-4.879-74.183-20.432-20.34-58.655-17.375-87.122-11.306-32.691 6.97-60.093 19.531-60.366 19.657-0.482 0.223-0.979 0.413-1.486 0.569-15.626 4.835-31.409 8.089-40.985-0.741-9.715-8.96-6.634-22.801-3.066-38.828 0.89-3.996 1.807-8.116 2.639-12.495-0.188-27.18-7.382-46.049-21.392-56.096-18.369-13.174-49.425-12.488-92.306 2.035-111.005 37.823-208.584 172.17-209.557 173.522l-0.155 0.21c-65.526 87.069-57.851 153.638-57.766 154.3l0.026 0.216c3.844 34.867 15.887 65.692 35.793 91.618 17.812 23.198 42.375 43.115 73.006 59.197 49.699 26.094 115.379 42.496 195.214 48.752 63.538 4.948 136.58-5.388 200.382-28.37 6.234-2.245 13.109 0.988 15.356 7.224 2.246 6.235-0.988 13.11-7.224 15.356-55.867 20.126-118.577 30.998-176.655 30.999z"  /><path d="M274.54 568.121a227.585 131.695 0 1 0 455.17 0 227.585 131.695 0 1 0-455.17 0Z" fill="#FFFFFF" /><path d="M502.125 711.816c-62.868 0-122.154-14.271-166.937-40.186-46.848-27.109-72.648-63.87-72.648-103.51s25.8-76.4 72.648-103.51c44.783-25.914 104.069-40.186 166.937-40.186 62.868 0 122.154 14.271 166.937 40.186 46.849 27.109 72.648 63.87 72.648 103.51s-25.8 76.4-72.648 103.51c-44.783 25.915-104.069 40.186-166.937 40.186z m0-263.39c-58.712 0-113.73 13.126-154.917 36.959-39.123 22.639-60.668 52.021-60.668 82.736s21.546 60.098 60.668 82.736c41.187 23.833 96.204 36.959 154.917 36.959 58.713 0 113.729-13.126 154.917-36.959 39.122-22.639 60.668-52.021 60.668-82.736s-21.546-60.098-60.668-82.736c-41.188-23.833-96.204-36.959-154.917-36.959z"  /><path d="M362.007 587.488a96.351 94.898 0 1 0 192.702 0 96.351 94.898 0 1 0-192.702 0Z" fill="#D1D9E0" /><path d="M458.359 694.387c-59.745 0-108.351-47.954-108.351-106.898S398.614 480.59 458.359 480.59s108.35 47.954 108.35 106.898-48.605 106.899-108.35 106.899z m0-189.797c-46.511 0-84.351 37.188-84.351 82.898s37.84 82.898 84.351 82.898c46.511 0 84.35-37.188 84.35-82.898s-37.839-82.898-84.35-82.898z" fill="#020202" /><path d="M399.032 608.793a38.903 38.732 0 1 0 77.806 0 38.903 38.732 0 1 0-77.806 0Z" fill="#FFFFFF" /><path d="M784.629 229.408c-23.926-5.58-48.514-0.775-55.403 0.545-0.528 0.055-1.032 0.539-1.523 0.641-0.233 0.049-0.38 0.291-0.38 0.291-6.805 1.918-11.767 8.184-11.767 15.578 0 8.82 7.173 16.07 16.138 16.07 0 0 8.695-1.162 14.604-3.461 5.858-2.35 55.379-1.75 79.989 39.383 13.413 30.02 5.896 50.115 4.962 53.34 0 0-3.193 7.803-3.193 15.482 0 8.867 7.173 14.43 16.064 14.43 7.443 0 13.684-1.006 15.513-13.527h0.099c26.415-87.647-32.316-128.832-75.103-138.772z" fill="#FCFFB6" /><path d="M759.992 226.771c7.764 0 16.243 0.68 24.637 2.637 42.787 9.939 101.519 51.125 75.102 138.771h-0.099c-1.829 12.521-8.069 13.527-15.513 13.527-8.892 0-16.064-5.562-16.064-14.43 0-7.68 3.193-15.482 3.193-15.482 0.935-3.225 8.451-23.32-4.962-53.34-20.094-33.584-56.789-40.146-72.772-40.146-3.593 0-6.142 0.332-7.217 0.764-5.908 2.299-14.604 3.461-14.604 3.461-8.965 0-16.138-7.25-16.138-16.07 0-7.395 4.962-13.66 11.767-15.578 0 0 0.146-0.242 0.38-0.291 0.491-0.102 0.995-0.586 1.523-0.641 4.473-0.857 16.401-3.182 30.767-3.182m0-20c-15.983 0-29.202 2.518-34.264 3.488a21.872 21.872 0 0 0-5.975 1.975c-0.288 0.123-0.573 0.254-0.855 0.39-13.889 5.274-23.343 18.766-23.343 33.839 0 19.889 16.211 36.07 36.138 36.07 0.886 0 1.771-0.059 2.649-0.176 1.711-0.229 10.078-1.434 17.457-4.003 0.393-0.023 0.959-0.046 1.714-0.046 3.104 0 14.221 0.424 26.996 5.875 12.034 5.135 21.449 13.051 28.003 23.541 4.214 9.807 8.061 23.918 3.837 37.479l-0.006 0.021c-1.253 3.298-4.289 12.302-4.289 22.054 0 10.107 4.139 19.235 11.654 25.701 6.542 5.629 15.211 8.729 24.41 8.729 6.346 0 13.8-0.646 20.973-5.438 7.26-4.852 11.933-12.492 13.913-22.735 6.138-20.524 8.428-40.127 6.806-58.271-1.519-16.987-6.443-32.775-14.638-46.926-9.077-15.675-21.872-28.989-38.032-39.573-13.337-8.736-28.547-15.25-43.986-18.837-8.973-2.094-18.791-3.157-29.162-3.157z"  /></svg>